<svg width="1338" height="350" viewBox="0 0 1338 350" fill="none" xmlns="http://www.w3.org/2000/svg">
<path d="M91 242.5L89.5 316L131.5 320C131.5 329.333 128.667 339.333 123 350H8L6.5 332.5C22.1667 327.167 37.5 323.167 52.5 320.5C49.1667 191.167 46.5 94.1667 44.5 29.5C32.1667 27.1667 17.3333 23.1667 5.96046e-07 17.5L1.5 -2.38419e-05H126.5C132.167 10.6666 135 20.6666 135 30C118.333 31.3333 105 32 95 32C94.3333 66.6667 93.6667 98 93 126C92.6667 154 92.3333 173.667 92 185L211.5 34L171.5 30C171.5 20.6666 174.333 10.6666 180 -2.38419e-05H307L308.5 22C293.167 27.3333 278.167 31.3333 263.5 34L165 152.5L280 316L322 320C322 329.333 319.167 339.333 313.5 350H251L137.5 186.5L91 242.5ZM710.191 297.5L776.191 29.5C762.858 26.8333 747.858 22.8333 731.191 17.5L732.691 -2.38419e-05H857.691C863.358 10.6666 866.191 20.6666 866.191 30C847.858 31 831.858 32 818.191 33L731.191 350H684.191L598.191 56.5L520.191 350H468.191L378.691 29.5C365.358 26.8333 350.358 22.8333 333.691 17.5L335.191 -2.38419e-05H465.191C470.858 10.6666 473.691 20.6666 473.691 30C457.358 31 442.358 32 428.691 33L492.191 297.5H494.191C504.858 251.5 519.191 196 537.191 131C555.525 66 567.691 22.5 573.691 0.49997H627.691L708.191 297.5H710.191ZM991.766 32L986.766 316L1028.77 320C1028.77 329.333 1025.93 339.333 1020.27 350H905.266L903.766 332.5C919.099 327.167 934.266 323.167 949.266 320.5C948.599 298.833 947.432 254.167 945.766 186.5C944.432 118.833 943.266 66.5 942.266 29.5C928.932 26.8333 913.932 22.8333 897.266 17.5L898.766 -2.38419e-05H1023.77C1029.43 10.6666 1032.27 20.6666 1032.27 30C1015.27 31.3333 1001.77 32 991.766 32ZM1097.71 18C1097.71 14 1098.04 7.99997 1098.71 -2.38419e-05H1326.21C1332.21 7.66664 1336.04 17.8333 1337.71 30.5L1142.71 316.5H1288.71L1300.71 259.5C1311.37 259.5 1320.04 260.5 1326.71 262.5C1332.04 286.167 1334.71 305.667 1334.71 321C1334.71 336.333 1334.37 346 1333.71 350H1093.71C1087.71 342.333 1083.87 332.167 1082.21 319.5L1276.71 34H1145.21L1132.21 91.5C1120.54 91.5 1111.87 90.3333 1106.21 88C1100.54 63.6667 1097.71 40.3333 1097.71 18Z" fill="white"/>
</svg>
